<svg width="640" height="360" viewBox="0 0 640 360" xmlns="http://www.w3.org/2000/svg" fill="none">
  <rect width="640" height="360" rx="18" fill="#0f172a" />
  <g stroke="#1e293b" stroke-width="2">
    <line x1="80" y1="80" x2="560" y2="80" />
    <line x1="80" y1="180" x2="560" y2="180" />
    <line x1="80" y1="280" x2="560" y2="280" />
  </g>
  <g stroke="#38bdf8" stroke-width="6" stroke-linecap="round">
    <line x1="120" y1="80" x2="320" y2="80" />
    <line x1="320" y1="180" x2="460" y2="180" />
    <line x1="200" y1="280" x2="520" y2="280" />
  </g>
  <g fill="#22d3ee">
    <circle cx="120" cy="80" r="10" />
    <circle cx="320" cy="80" r="10" />
    <circle cx="320" cy="180" r="10" />
    <circle cx="460" cy="180" r="10" />
    <circle cx="200" cy="280" r="10" />
    <circle cx="520" cy="280" r="10" />
  </g>
  <g fill="#cbd5e1" font-family="Inter, system-ui" font-size="12">
    <text x="90" y="60">V1 planning</text>
    <text x="290" y="60">V1 launch</text>
    <text x="290" y="160">V2 build</text>
    <text x="430" y="160">V2 release</text>
    <text x="170" y="260">Bugfix train</text>
    <text x="490" y="260">Integrations</text>
  </g>
  <text x="32" y="42" fill="#cbd5e1" font-family="Inter, system-ui" font-size="16" font-weight="600">Delivery milestones</text>
  <text x="32" y="62" fill="#64748b" font-family="Inter, system-ui" font-size="12">Snapshots of 2025 delivery windows</text>
</svg>
