<svg width="640" height="360" viewBox="0 0 640 360" xmlns="http://www.w3.org/2000/svg" fill="none">
  <rect width="640" height="360" rx="18" fill="#0b1224" />
  <rect x="26" y="26" width="588" height="308" rx="14" fill="#0f172a" stroke="#1f2a44" />
  <rect x="60" y="70" width="520" height="36" rx="10" fill="#111c30" stroke="#1f2a44" />
  <rect x="60" y="122" width="520" height="160" rx="12" fill="#101a33" stroke="#1f2a44" />
  <rect x="60" y="292" width="160" height="28" rx="8" fill="#1d4ed8" opacity="0.85" />
  <rect x="232" y="292" width="160" height="28" rx="8" fill="#0ea5e9" opacity="0.85" />
  <rect x="404" y="292" width="176" height="28" rx="8" fill="#14b8a6" opacity="0.85" />
  <rect x="80" y="90" width="120" height="8" rx="4" fill="#cbd5e1" />
  <rect x="60" y="134" width="520" height="32" rx="6" fill="#111c30" stroke="#223358" />
  <rect x="60" y="174" width="520" height="32" rx="6" fill="#111c30" stroke="#223358" />
  <rect x="60" y="214" width="520" height="32" rx="6" fill="#111c30" stroke="#223358" />
  <rect x="60" y="254" width="520" height="20" rx="6" fill="#0ea5e9" opacity="0.4" />
  <circle cx="92" cy="150" r="8" fill="#22d3ee" />
  <circle cx="92" cy="190" r="8" fill="#a855f7" />
  <circle cx="92" cy="230" r="8" fill="#14b8a6" />
  <text x="40" y="56" fill="#cbd5e1" font-family="Inter, system-ui" font-size="16" font-weight="600">Interactive dashboard</text>
  <text x="40" y="80" fill="#64748b" font-family="Inter, system-ui" font-size="12">Schedules, fittings, and calculation modes</text>
</svg>
